<mxfile host="app.diagrams.net" modified="2022-12-26T14:12:43.499Z" agent="5.0 (Windows NT 10.0; Win64; x64) AppleWebKit/537.36 (KHTML, like Gecko) Chrome/108.0.0.0 Safari/537.36" version="20.7.4" etag="dJaGq7_FlttVwl3ywOF_" type="github">
  <diagram id="__Vooxeho_2QLIAx5taA" name="第 1 页">
    <mxGraphModel dx="1687" dy="899" grid="1" gridSize="10" guides="1" tooltips="1" connect="1" arrows="1" fold="1" page="1" pageScale="1" pageWidth="1600" pageHeight="900" math="0" shadow="0">
      <root>
        <mxCell id="0" />
        <mxCell id="1" parent="0" />
        <mxCell id="Y9e_P1kNlDkDQwcZuphl-1" value="&lt;font style=&quot;font-size: 36px;&quot;&gt;USER&lt;/font&gt;" style="rounded=0;whiteSpace=wrap;html=1;" vertex="1" parent="1">
          <mxGeometry x="80" y="40" width="320" height="80" as="geometry" />
        </mxCell>
        <mxCell id="Y9e_P1kNlDkDQwcZuphl-2" value="&lt;span style=&quot;font-size: 36px;&quot;&gt;System&lt;/span&gt;" style="rounded=0;whiteSpace=wrap;html=1;" vertex="1" parent="1">
          <mxGeometry x="440" y="40" width="560" height="80" as="geometry" />
        </mxCell>
        <mxCell id="Y9e_P1kNlDkDQwcZuphl-3" value="&lt;span style=&quot;font-size: 36px;&quot;&gt;Database&lt;/span&gt;" style="rounded=0;whiteSpace=wrap;html=1;" vertex="1" parent="1">
          <mxGeometry x="1040" y="40" width="400" height="80" as="geometry" />
        </mxCell>
        <mxCell id="Y9e_P1kNlDkDQwcZuphl-4" value="&lt;font style=&quot;font-size: 18px;&quot;&gt;medical institution&lt;br&gt;or&lt;br&gt;patient&lt;/font&gt;" style="rounded=0;whiteSpace=wrap;html=1;fontSize=36;" vertex="1" parent="1">
          <mxGeometry x="80" y="160" width="80" height="280" as="geometry" />
        </mxCell>
        <mxCell id="Y9e_P1kNlDkDQwcZuphl-5" value="&lt;font style=&quot;font-size: 18px;&quot;&gt;Raw Data&lt;/font&gt;" style="rounded=0;whiteSpace=wrap;html=1;fontSize=18;" vertex="1" parent="1">
          <mxGeometry x="280" y="280" width="120" height="80" as="geometry" />
        </mxCell>
        <mxCell id="Y9e_P1kNlDkDQwcZuphl-6" value="&lt;font style=&quot;font-size: 18px;&quot;&gt;Encrypted data&lt;/font&gt;" style="rounded=0;whiteSpace=wrap;html=1;fontSize=24;" vertex="1" parent="1">
          <mxGeometry x="560" y="280" width="120" height="80" as="geometry" />
        </mxCell>
        <mxCell id="Y9e_P1kNlDkDQwcZuphl-7" value="" style="endArrow=classic;html=1;rounded=0;fontSize=18;" edge="1" parent="1">
          <mxGeometry width="50" height="50" relative="1" as="geometry">
            <mxPoint x="190" y="320" as="sourcePoint" />
            <mxPoint x="270" y="320" as="targetPoint" />
          </mxGeometry>
        </mxCell>
        <mxCell id="Y9e_P1kNlDkDQwcZuphl-10" value="encrypt" style="text;html=1;strokeColor=none;fillColor=none;align=center;verticalAlign=middle;whiteSpace=wrap;rounded=0;fontSize=18;" vertex="1" parent="1">
          <mxGeometry x="440" y="280" width="80" height="40" as="geometry" />
        </mxCell>
        <mxCell id="Y9e_P1kNlDkDQwcZuphl-11" value="N shares" style="rounded=0;whiteSpace=wrap;html=1;fontSize=18;" vertex="1" parent="1">
          <mxGeometry x="840" y="280" width="120" height="80" as="geometry" />
        </mxCell>
        <mxCell id="Y9e_P1kNlDkDQwcZuphl-14" value="" style="endArrow=classic;html=1;rounded=0;fontSize=18;" edge="1" parent="1">
          <mxGeometry width="50" height="50" relative="1" as="geometry">
            <mxPoint x="410" y="320" as="sourcePoint" />
            <mxPoint x="550" y="320" as="targetPoint" />
          </mxGeometry>
        </mxCell>
        <mxCell id="Y9e_P1kNlDkDQwcZuphl-15" value="" style="endArrow=classic;html=1;rounded=0;fontSize=18;" edge="1" parent="1">
          <mxGeometry width="50" height="50" relative="1" as="geometry">
            <mxPoint x="690" y="320" as="sourcePoint" />
            <mxPoint x="830" y="320" as="targetPoint" />
          </mxGeometry>
        </mxCell>
        <mxCell id="Y9e_P1kNlDkDQwcZuphl-16" value="secret-splitting" style="text;html=1;strokeColor=none;fillColor=none;align=center;verticalAlign=middle;whiteSpace=wrap;rounded=0;fontSize=18;" vertex="1" parent="1">
          <mxGeometry x="690" y="290" width="140" height="30" as="geometry" />
        </mxCell>
        <mxCell id="Y9e_P1kNlDkDQwcZuphl-18" value="DB 0" style="rounded=0;whiteSpace=wrap;html=1;fontSize=18;" vertex="1" parent="1">
          <mxGeometry x="1080" y="260" width="80" height="40" as="geometry" />
        </mxCell>
        <mxCell id="Y9e_P1kNlDkDQwcZuphl-19" value="DB 1" style="rounded=0;whiteSpace=wrap;html=1;fontSize=18;" vertex="1" parent="1">
          <mxGeometry x="1080" y="340" width="80" height="40" as="geometry" />
        </mxCell>
        <mxCell id="Y9e_P1kNlDkDQwcZuphl-20" value="DB 2" style="rounded=0;whiteSpace=wrap;html=1;fontSize=18;" vertex="1" parent="1">
          <mxGeometry x="1200" y="260" width="80" height="40" as="geometry" />
        </mxCell>
        <mxCell id="Y9e_P1kNlDkDQwcZuphl-22" value="&lt;font style=&quot;font-size: 48px;&quot;&gt;...&lt;/font&gt;" style="text;html=1;strokeColor=none;fillColor=none;align=center;verticalAlign=middle;whiteSpace=wrap;rounded=0;fontSize=18;" vertex="1" parent="1">
          <mxGeometry x="1320" y="265" width="80" height="30" as="geometry" />
        </mxCell>
        <mxCell id="Y9e_P1kNlDkDQwcZuphl-26" value="" style="endArrow=classic;html=1;rounded=0;fontSize=18;" edge="1" parent="1">
          <mxGeometry width="50" height="50" relative="1" as="geometry">
            <mxPoint x="970" y="319.66" as="sourcePoint" />
            <mxPoint x="1070" y="319.66" as="targetPoint" />
          </mxGeometry>
        </mxCell>
        <mxCell id="Y9e_P1kNlDkDQwcZuphl-28" value="DB 3" style="rounded=0;whiteSpace=wrap;html=1;fontSize=18;" vertex="1" parent="1">
          <mxGeometry x="1200" y="340" width="80" height="40" as="geometry" />
        </mxCell>
        <mxCell id="Y9e_P1kNlDkDQwcZuphl-29" value="DB N" style="rounded=0;whiteSpace=wrap;html=1;fontSize=18;" vertex="1" parent="1">
          <mxGeometry x="1320" y="340" width="80" height="40" as="geometry" />
        </mxCell>
        <mxCell id="Y9e_P1kNlDkDQwcZuphl-30" value="submit" style="text;html=1;strokeColor=none;fillColor=none;align=center;verticalAlign=middle;whiteSpace=wrap;rounded=0;fontSize=18;" vertex="1" parent="1">
          <mxGeometry x="200" y="290" width="60" height="30" as="geometry" />
        </mxCell>
        <mxCell id="Y9e_P1kNlDkDQwcZuphl-31" value="1" style="ellipse;whiteSpace=wrap;html=1;aspect=fixed;fontSize=18;" vertex="1" parent="1">
          <mxGeometry x="200" y="240" width="20" height="20" as="geometry" />
        </mxCell>
        <mxCell id="Y9e_P1kNlDkDQwcZuphl-32" value="2" style="ellipse;whiteSpace=wrap;html=1;aspect=fixed;fontSize=18;" vertex="1" parent="1">
          <mxGeometry x="440" y="240" width="20" height="20" as="geometry" />
        </mxCell>
        <mxCell id="Y9e_P1kNlDkDQwcZuphl-34" value="3" style="ellipse;whiteSpace=wrap;html=1;aspect=fixed;fontSize=18;" vertex="1" parent="1">
          <mxGeometry x="680" y="240" width="20" height="20" as="geometry" />
        </mxCell>
        <mxCell id="Y9e_P1kNlDkDQwcZuphl-35" value="4" style="ellipse;whiteSpace=wrap;html=1;aspect=fixed;fontSize=18;" vertex="1" parent="1">
          <mxGeometry x="1000" y="240" width="20" height="20" as="geometry" />
        </mxCell>
        <mxCell id="Y9e_P1kNlDkDQwcZuphl-37" value="distribution" style="text;html=1;strokeColor=none;fillColor=none;align=center;verticalAlign=middle;whiteSpace=wrap;rounded=0;fontSize=18;" vertex="1" parent="1">
          <mxGeometry x="970" y="290" width="100" height="30" as="geometry" />
        </mxCell>
        <mxCell id="Y9e_P1kNlDkDQwcZuphl-44" value="DB 0" style="rounded=0;whiteSpace=wrap;html=1;fontSize=18;" vertex="1" parent="1">
          <mxGeometry x="1080" y="520" width="80" height="40" as="geometry" />
        </mxCell>
        <mxCell id="Y9e_P1kNlDkDQwcZuphl-45" value="DB 1" style="rounded=0;whiteSpace=wrap;html=1;fontSize=18;" vertex="1" parent="1">
          <mxGeometry x="1080" y="600" width="80" height="40" as="geometry" />
        </mxCell>
        <mxCell id="Y9e_P1kNlDkDQwcZuphl-46" value="DB 2" style="rounded=0;whiteSpace=wrap;html=1;fontSize=18;" vertex="1" parent="1">
          <mxGeometry x="1200" y="520" width="80" height="40" as="geometry" />
        </mxCell>
        <mxCell id="Y9e_P1kNlDkDQwcZuphl-47" value="&lt;font style=&quot;font-size: 48px;&quot;&gt;...&lt;/font&gt;" style="text;html=1;strokeColor=none;fillColor=none;align=center;verticalAlign=middle;whiteSpace=wrap;rounded=0;fontSize=18;" vertex="1" parent="1">
          <mxGeometry x="1320" y="525" width="80" height="30" as="geometry" />
        </mxCell>
        <mxCell id="Y9e_P1kNlDkDQwcZuphl-48" value="DB 3" style="rounded=0;whiteSpace=wrap;html=1;fontSize=18;" vertex="1" parent="1">
          <mxGeometry x="1200" y="600" width="80" height="40" as="geometry" />
        </mxCell>
        <mxCell id="Y9e_P1kNlDkDQwcZuphl-49" value="DB N" style="rounded=0;whiteSpace=wrap;html=1;fontSize=18;" vertex="1" parent="1">
          <mxGeometry x="1320" y="600" width="80" height="40" as="geometry" />
        </mxCell>
        <mxCell id="Y9e_P1kNlDkDQwcZuphl-50" value="&lt;span style=&quot;font-size: 18px;&quot;&gt;medical company&lt;br&gt;or academic&amp;nbsp;&lt;br&gt;institution&lt;br&gt;&lt;/span&gt;" style="rounded=0;whiteSpace=wrap;html=1;fontSize=36;" vertex="1" parent="1">
          <mxGeometry x="80" y="520" width="80" height="320" as="geometry" />
        </mxCell>
        <mxCell id="Y9e_P1kNlDkDQwcZuphl-54" value="" style="endArrow=classic;html=1;rounded=0;fontSize=48;" edge="1" parent="1">
          <mxGeometry width="50" height="50" relative="1" as="geometry">
            <mxPoint x="170" y="580" as="sourcePoint" />
            <mxPoint x="1070" y="580" as="targetPoint" />
          </mxGeometry>
        </mxCell>
        <mxCell id="Y9e_P1kNlDkDQwcZuphl-56" value="&lt;font style=&quot;font-size: 18px;&quot;&gt;Request the medical data&amp;nbsp;&lt;/font&gt;" style="text;html=1;strokeColor=none;fillColor=none;align=center;verticalAlign=middle;whiteSpace=wrap;rounded=0;fontSize=18;" vertex="1" parent="1">
          <mxGeometry x="360" y="550" width="520" height="30" as="geometry" />
        </mxCell>
        <mxCell id="Y9e_P1kNlDkDQwcZuphl-57" value="" style="endArrow=classic;html=1;rounded=0;fontSize=18;" edge="1" parent="1">
          <mxGeometry width="50" height="50" relative="1" as="geometry">
            <mxPoint x="1240" y="650" as="sourcePoint" />
            <mxPoint x="1240" y="710" as="targetPoint" />
          </mxGeometry>
        </mxCell>
        <mxCell id="Y9e_P1kNlDkDQwcZuphl-58" value="M shares" style="rounded=0;whiteSpace=wrap;html=1;fontSize=18;" vertex="1" parent="1">
          <mxGeometry x="1080" y="720" width="80" height="40" as="geometry" />
        </mxCell>
        <mxCell id="Y9e_P1kNlDkDQwcZuphl-59" value="M shares" style="rounded=0;whiteSpace=wrap;html=1;fontSize=18;" vertex="1" parent="1">
          <mxGeometry x="1200" y="720" width="80" height="40" as="geometry" />
        </mxCell>
        <mxCell id="Y9e_P1kNlDkDQwcZuphl-61" value="M shares" style="rounded=0;whiteSpace=wrap;html=1;fontSize=18;" vertex="1" parent="1">
          <mxGeometry x="1320" y="720" width="80" height="40" as="geometry" />
        </mxCell>
        <mxCell id="Y9e_P1kNlDkDQwcZuphl-62" value="M shares" style="rounded=0;whiteSpace=wrap;html=1;fontSize=18;" vertex="1" parent="1">
          <mxGeometry x="1080" y="800" width="80" height="40" as="geometry" />
        </mxCell>
        <mxCell id="Y9e_P1kNlDkDQwcZuphl-63" value="M shares" style="rounded=0;whiteSpace=wrap;html=1;fontSize=18;" vertex="1" parent="1">
          <mxGeometry x="1200" y="800" width="80" height="40" as="geometry" />
        </mxCell>
        <mxCell id="Y9e_P1kNlDkDQwcZuphl-64" value="&lt;font style=&quot;font-size: 48px;&quot;&gt;...&lt;/font&gt;" style="text;html=1;strokeColor=none;fillColor=none;align=center;verticalAlign=middle;whiteSpace=wrap;rounded=0;fontSize=18;" vertex="1" parent="1">
          <mxGeometry x="1320" y="800" width="80" height="40" as="geometry" />
        </mxCell>
        <mxCell id="Y9e_P1kNlDkDQwcZuphl-65" value="Get the data" style="text;html=1;strokeColor=none;fillColor=none;align=center;verticalAlign=middle;whiteSpace=wrap;rounded=0;fontSize=18;" vertex="1" parent="1">
          <mxGeometry x="1260" y="665" width="110" height="30" as="geometry" />
        </mxCell>
        <mxCell id="Y9e_P1kNlDkDQwcZuphl-66" value="" style="endArrow=classic;html=1;rounded=0;fontSize=18;" edge="1" parent="1">
          <mxGeometry width="50" height="50" relative="1" as="geometry">
            <mxPoint x="1070" y="780" as="sourcePoint" />
            <mxPoint x="920" y="780" as="targetPoint" />
          </mxGeometry>
        </mxCell>
        <mxCell id="Y9e_P1kNlDkDQwcZuphl-67" value="Combine shares" style="text;html=1;strokeColor=none;fillColor=none;align=center;verticalAlign=middle;whiteSpace=wrap;rounded=0;fontSize=18;" vertex="1" parent="1">
          <mxGeometry x="920" y="740" width="140" height="30" as="geometry" />
        </mxCell>
        <mxCell id="Y9e_P1kNlDkDQwcZuphl-69" value="&lt;font style=&quot;font-size: 12px;&quot;&gt;Encrypted data&lt;/font&gt;" style="rounded=0;whiteSpace=wrap;html=1;fontSize=18;" vertex="1" parent="1">
          <mxGeometry x="560" y="720" width="80" height="40" as="geometry" />
        </mxCell>
        <mxCell id="Y9e_P1kNlDkDQwcZuphl-70" value="&lt;font style=&quot;font-size: 12px;&quot;&gt;Encrypted data&lt;/font&gt;" style="rounded=0;whiteSpace=wrap;html=1;fontSize=18;" vertex="1" parent="1">
          <mxGeometry x="680" y="720" width="80" height="40" as="geometry" />
        </mxCell>
        <mxCell id="Y9e_P1kNlDkDQwcZuphl-71" value="&lt;font style=&quot;font-size: 12px;&quot;&gt;Encrypted data&lt;/font&gt;" style="rounded=0;whiteSpace=wrap;html=1;fontSize=18;" vertex="1" parent="1">
          <mxGeometry x="800" y="720" width="80" height="40" as="geometry" />
        </mxCell>
        <mxCell id="Y9e_P1kNlDkDQwcZuphl-72" value="&lt;font style=&quot;font-size: 12px;&quot;&gt;Encrypted data&lt;/font&gt;" style="rounded=0;whiteSpace=wrap;html=1;fontSize=18;" vertex="1" parent="1">
          <mxGeometry x="560" y="800" width="80" height="40" as="geometry" />
        </mxCell>
        <mxCell id="Y9e_P1kNlDkDQwcZuphl-73" value="&lt;font style=&quot;font-size: 12px;&quot;&gt;Encrypted data&lt;/font&gt;" style="rounded=0;whiteSpace=wrap;html=1;fontSize=18;" vertex="1" parent="1">
          <mxGeometry x="680" y="800" width="80" height="40" as="geometry" />
        </mxCell>
        <mxCell id="Y9e_P1kNlDkDQwcZuphl-74" value="&lt;font style=&quot;font-size: 48px;&quot;&gt;...&lt;/font&gt;" style="text;html=1;strokeColor=none;fillColor=none;align=center;verticalAlign=middle;whiteSpace=wrap;rounded=0;fontSize=18;" vertex="1" parent="1">
          <mxGeometry x="800" y="800" width="80" height="40" as="geometry" />
        </mxCell>
        <mxCell id="Y9e_P1kNlDkDQwcZuphl-75" value="" style="endArrow=classic;html=1;rounded=0;fontSize=12;" edge="1" parent="1">
          <mxGeometry width="50" height="50" relative="1" as="geometry">
            <mxPoint x="550" y="780" as="sourcePoint" />
            <mxPoint x="170" y="780" as="targetPoint" />
          </mxGeometry>
        </mxCell>
        <mxCell id="Y9e_P1kNlDkDQwcZuphl-76" value="&lt;font style=&quot;font-size: 18px;&quot;&gt;Sends the data back to requested institution&lt;/font&gt;" style="text;html=1;strokeColor=none;fillColor=none;align=center;verticalAlign=middle;whiteSpace=wrap;rounded=0;fontSize=12;" vertex="1" parent="1">
          <mxGeometry x="170" y="735" width="380" height="40" as="geometry" />
        </mxCell>
        <mxCell id="Y9e_P1kNlDkDQwcZuphl-77" value="1" style="ellipse;whiteSpace=wrap;html=1;aspect=fixed;fontSize=18;" vertex="1" parent="1">
          <mxGeometry x="480" y="520" width="20" height="20" as="geometry" />
        </mxCell>
        <mxCell id="Y9e_P1kNlDkDQwcZuphl-78" value="2" style="ellipse;whiteSpace=wrap;html=1;aspect=fixed;fontSize=18;" vertex="1" parent="1">
          <mxGeometry x="1040" y="480" width="20" height="20" as="geometry" />
        </mxCell>
        <mxCell id="Y9e_P1kNlDkDQwcZuphl-80" value="3" style="ellipse;whiteSpace=wrap;html=1;aspect=fixed;fontSize=18;" vertex="1" parent="1">
          <mxGeometry x="1040" y="680" width="20" height="20" as="geometry" />
        </mxCell>
        <mxCell id="Y9e_P1kNlDkDQwcZuphl-81" value="4" style="ellipse;whiteSpace=wrap;html=1;aspect=fixed;fontSize=18;" vertex="1" parent="1">
          <mxGeometry x="180" y="680" width="20" height="20" as="geometry" />
        </mxCell>
      </root>
    </mxGraphModel>
  </diagram>
</mxfile>
